# xmcd
#
# Track frame offsets: 
#        150
#        17652
#        33899
#        49200
#        65044
#        80559
#        99075
#        118177
#        133774
#        149943
#        167229
#        183041
#        200541
#        214902
#        231640
#        245446
#
# Disc length: 3475 seconds
#
# Revision: 0
# Processed by: cddbd v1.5PL3 Copyright (c) Steve Scherf et al.
# Submitted via: ExactAudioCopy v0.95a5
#
DISCID=f10d9110
DTITLE=Various Artist - Dance Floor Dynamics
DYEAR=1900
DGENRE=Blues
TTITLE0=Carey Ziegler and Adria - Bang A Gong (121)   
TTITLE1=Adeja Benz - Ridin' Solo (100)  
TTITLE2=Chris Moutas - Extreme Reaction (100)  
TTITLE3=Big Joe Maher - Statesboro Blues (124) 
TTITLE4=The Catalinas - Sexy Lady (Beach Bag Special Mix) (123)  
TTITLE5=Bobbie Gilmore and Connie Etheridge - Swing Time Boogie (Western
TTITLE5=Swing Remix) (113)  
TTITLE6=Blue Eye Sole - Don't Ask (102)  
TTITLE7=Snoopy Dean - (I Can) Read Between The Lines (100)  
TTITLE8=Foxxy - Hot Number ((Hot and Funky Mix) (126)  
TTITLE9=Bill Deal and the Rhondels - Don't Play  That Song (120)  
TTITLE10=Bobby Whitlock - Spirit In The Sky (Western Swing Instrumenta
TTITLE10=l Mix) (123)  
TTITLE11=David Cook - Thief In The Night (102)  
TTITLE12=Groove Doctors - Drive Me Home Baby (88)  
TTITLE13=Chris Moutas - No More Pain and Lies (96) 
TTITLE14=Freddie Gorman, Wendy Smith,Cadence Patrol - America Loves (1
TTITLE14=10)  
TTITLE15=Eric Allison - Jingle Bells - Santa's On The Way (88)  
EXTD=
EXTT0=
EXTT1=
EXTT2=
EXTT3=
EXTT4=
EXTT5=
EXTT6=
EXTT7=
EXTT8=
EXTT9=
EXTT10=
EXTT11=
EXTT12=
EXTT13=
EXTT14=
EXTT15=
PLAYORDER=
